<?xml version="1.0" encoding="utf-8" standalone="no"?>
<!DOCTYPE svg PUBLIC "-//W3C//DTD SVG 1.1//EN"
  "http://www.w3.org/Graphics/SVG/1.1/DTD/svg11.dtd">
<!-- Created with matplotlib (http://matplotlib.org/) -->
<svg height="288pt" version="1.1" viewBox="0 0 432 288" width="432pt" xmlns="http://www.w3.org/2000/svg" xmlns:xlink="http://www.w3.org/1999/xlink">
 <defs>
  <style type="text/css">
*{stroke-linecap:butt;stroke-linejoin:round;}
  </style>
 </defs>
 <g id="figure_1">
  <g id="patch_1">
   <path d="M 0 288 
L 432 288 
L 432 0 
L 0 0 
z
" style="fill:#ffffff;"/>
  </g>
  <g id="axes_1">
   <g id="patch_2">
    <path clip-path="url(#pac470c7750)" d="M 299.6784 143.28 
L 242.90165 77.104727 
L 161.589697 99.825271 
L 152.794064 193.12513 
L 246.933209 221.863137 
z
" style="fill:#0000ff;opacity:0.08;"/>
   </g>
   <g id="matplotlib.axis_1">
    <g id="xtick_1">
     <g id="line2d_1">
      <path clip-path="url(#pac470c7750)" d="M 221.4 143.28 
L 330.12 143.28 
" style="fill:none;stroke:#b0b0b0;stroke-linecap:square;stroke-width:0.8;"/>
     </g>
     <g id="text_1">
      <!-- Culture -->
      <defs>
       <path d="M 64.40625 67.28125 
L 64.40625 56.890625 
Q 59.421875 61.53125 53.78125 63.8125 
Q 48.140625 66.109375 41.796875 66.109375 
Q 29.296875 66.109375 22.65625 58.46875 
Q 16.015625 50.828125 16.015625 36.375 
Q 16.015625 21.96875 22.65625 14.328125 
Q 29.296875 6.6875 41.796875 6.6875 
Q 48.140625 6.6875 53.78125 8.984375 
Q 59.421875 11.28125 64.40625 15.921875 
L 64.40625 5.609375 
Q 59.234375 2.09375 53.4375 0.328125 
Q 47.65625 -1.421875 41.21875 -1.421875 
Q 24.65625 -1.421875 15.125 8.703125 
Q 5.609375 18.84375 5.609375 36.375 
Q 5.609375 53.953125 15.125 64.078125 
Q 24.65625 74.21875 41.21875 74.21875 
Q 47.75 74.21875 53.53125 72.484375 
Q 59.328125 70.75 64.40625 67.28125 
z
" id="DejaVuSans-43"/>
       <path d="M 8.5 21.578125 
L 8.5 54.6875 
L 17.484375 54.6875 
L 17.484375 21.921875 
Q 17.484375 14.15625 20.5 10.265625 
Q 23.53125 6.390625 29.59375 6.390625 
Q 36.859375 6.390625 41.078125 11.03125 
Q 45.3125 15.671875 45.3125 23.6875 
L 45.3125 54.6875 
L 54.296875 54.6875 
L 54.296875 0 
L 45.3125 0 
L 45.3125 8.40625 
Q 42.046875 3.421875 37.71875 1 
Q 33.40625 -1.421875 27.6875 -1.421875 
Q 18.265625 -1.421875 13.375 4.4375 
Q 8.5 10.296875 8.5 21.578125 
z
M 31.109375 56 
z
" id="DejaVuSans-75"/>
       <path d="M 9.421875 75.984375 
L 18.40625 75.984375 
L 18.40625 0 
L 9.421875 0 
z
" id="DejaVuSans-6c"/>
       <path d="M 18.3125 70.21875 
L 18.3125 54.6875 
L 36.8125 54.6875 
L 36.8125 47.703125 
L 18.3125 47.703125 
L 18.3125 18.015625 
Q 18.3125 11.328125 20.140625 9.421875 
Q 21.96875 7.515625 27.59375 7.515625 
L 36.8125 7.515625 
L 36.8125 0 
L 27.59375 0 
Q 17.1875 0 13.234375 3.875 
Q 9.28125 7.765625 9.28125 18.015625 
L 9.28125 47.703125 
L 2.6875 47.703125 
L 2.6875 54.6875 
L 9.28125 54.6875 
L 9.28125 70.21875 
z
" id="DejaVuSans-74"/>
       <path d="M 41.109375 46.296875 
Q 39.59375 47.171875 37.8125 47.578125 
Q 36.03125 48 33.890625 48 
Q 26.265625 48 22.1875 43.046875 
Q 18.109375 38.09375 18.109375 28.8125 
L 18.109375 0 
L 9.078125 0 
L 9.078125 54.6875 
L 18.109375 54.6875 
L 18.109375 46.1875 
Q 20.953125 51.171875 25.484375 53.578125 
Q 30.03125 56 36.53125 56 
Q 37.453125 56 38.578125 55.875 
Q 39.703125 55.765625 41.0625 55.515625 
z
" id="DejaVuSans-72"/>
       <path d="M 56.203125 29.59375 
L 56.203125 25.203125 
L 14.890625 25.203125 
Q 15.484375 15.921875 20.484375 11.0625 
Q 25.484375 6.203125 34.421875 6.203125 
Q 39.59375 6.203125 44.453125 7.46875 
Q 49.3125 8.734375 54.109375 11.28125 
L 54.109375 2.78125 
Q 49.265625 0.734375 44.1875 -0.34375 
Q 39.109375 -1.421875 33.890625 -1.421875 
Q 20.796875 -1.421875 13.15625 6.1875 
Q 5.515625 13.8125 5.515625 26.8125 
Q 5.515625 40.234375 12.765625 48.109375 
Q 20.015625 56 32.328125 56 
Q 43.359375 56 49.78125 48.890625 
Q 56.203125 41.796875 56.203125 29.59375 
z
M 47.21875 32.234375 
Q 47.125 39.59375 43.09375 43.984375 
Q 39.0625 48.390625 32.421875 48.390625 
Q 24.90625 48.390625 20.390625 44.140625 
Q 15.875 39.890625 15.1875 32.171875 
z
" id="DejaVuSans-65"/>
      </defs>
      <g transform="translate(325.811406 146.039375)scale(0.1 -0.1)">
       <use xlink:href="#DejaVuSans-43"/>
       <use x="69.824219" xlink:href="#DejaVuSans-75"/>
       <use x="133.203125" xlink:href="#DejaVuSans-6c"/>
       <use x="160.986328" xlink:href="#DejaVuSans-74"/>
       <use x="200.195312" xlink:href="#DejaVuSans-75"/>
       <use x="263.574219" xlink:href="#DejaVuSans-72"/>
       <use x="304.65625" xlink:href="#DejaVuSans-65"/>
      </g>
     </g>
    </g>
    <g id="xtick_2">
     <g id="line2d_2">
      <path clip-path="url(#pac470c7750)" d="M 221.4 143.28 
L 254.996328 39.881136 
" style="fill:none;stroke:#b0b0b0;stroke-linecap:square;stroke-width:0.8;"/>
     </g>
     <g id="text_2">
      <!-- Job Security &amp; -->
      <defs>
       <path d="M 9.8125 72.90625 
L 19.671875 72.90625 
L 19.671875 5.078125 
Q 19.671875 -8.109375 14.671875 -14.0625 
Q 9.671875 -20.015625 -1.421875 -20.015625 
L -5.171875 -20.015625 
L -5.171875 -11.71875 
L -2.09375 -11.71875 
Q 4.4375 -11.71875 7.125 -8.046875 
Q 9.8125 -4.390625 9.8125 5.078125 
z
" id="DejaVuSans-4a"/>
       <path d="M 30.609375 48.390625 
Q 23.390625 48.390625 19.1875 42.75 
Q 14.984375 37.109375 14.984375 27.296875 
Q 14.984375 17.484375 19.15625 11.84375 
Q 23.34375 6.203125 30.609375 6.203125 
Q 37.796875 6.203125 41.984375 11.859375 
Q 46.1875 17.53125 46.1875 27.296875 
Q 46.1875 37.015625 41.984375 42.703125 
Q 37.796875 48.390625 30.609375 48.390625 
z
M 30.609375 56 
Q 42.328125 56 49.015625 48.375 
Q 55.71875 40.765625 55.71875 27.296875 
Q 55.71875 13.875 49.015625 6.21875 
Q 42.328125 -1.421875 30.609375 -1.421875 
Q 18.84375 -1.421875 12.171875 6.21875 
Q 5.515625 13.875 5.515625 27.296875 
Q 5.515625 40.765625 12.171875 48.375 
Q 18.84375 56 30.609375 56 
z
" id="DejaVuSans-6f"/>
       <path d="M 48.6875 27.296875 
Q 48.6875 37.203125 44.609375 42.84375 
Q 40.53125 48.484375 33.40625 48.484375 
Q 26.265625 48.484375 22.1875 42.84375 
Q 18.109375 37.203125 18.109375 27.296875 
Q 18.109375 17.390625 22.1875 11.75 
Q 26.265625 6.109375 33.40625 6.109375 
Q 40.53125 6.109375 44.609375 11.75 
Q 48.6875 17.390625 48.6875 27.296875 
z
M 18.109375 46.390625 
Q 20.953125 51.265625 25.265625 53.625 
Q 29.59375 56 35.59375 56 
Q 45.5625 56 51.78125 48.09375 
Q 58.015625 40.1875 58.015625 27.296875 
Q 58.015625 14.40625 51.78125 6.484375 
Q 45.5625 -1.421875 35.59375 -1.421875 
Q 29.59375 -1.421875 25.265625 0.953125 
Q 20.953125 3.328125 18.109375 8.203125 
L 18.109375 0 
L 9.078125 0 
L 9.078125 75.984375 
L 18.109375 75.984375 
z
" id="DejaVuSans-62"/>
       <path id="DejaVuSans-20"/>
       <path d="M 53.515625 70.515625 
L 53.515625 60.890625 
Q 47.90625 63.578125 42.921875 64.890625 
Q 37.9375 66.21875 33.296875 66.21875 
Q 25.25 66.21875 20.875 63.09375 
Q 16.5 59.96875 16.5 54.203125 
Q 16.5 49.359375 19.40625 46.890625 
Q 22.3125 44.4375 30.421875 42.921875 
L 36.375 41.703125 
Q 47.40625 39.59375 52.65625 34.296875 
Q 57.90625 29 57.90625 20.125 
Q 57.90625 9.515625 50.796875 4.046875 
Q 43.703125 -1.421875 29.984375 -1.421875 
Q 24.8125 -1.421875 18.96875 -0.25 
Q 13.140625 0.921875 6.890625 3.21875 
L 6.890625 13.375 
Q 12.890625 10.015625 18.65625 8.296875 
Q 24.421875 6.59375 29.984375 6.59375 
Q 38.421875 6.59375 43.015625 9.90625 
Q 47.609375 13.234375 47.609375 19.390625 
Q 47.609375 24.75 44.3125 27.78125 
Q 41.015625 30.8125 33.5 32.328125 
L 27.484375 33.5 
Q 16.453125 35.6875 11.515625 40.375 
Q 6.59375 45.0625 6.59375 53.421875 
Q 6.59375 63.09375 13.40625 68.65625 
Q 20.21875 74.21875 32.171875 74.21875 
Q 37.3125 74.21875 42.625 73.28125 
Q 47.953125 72.359375 53.515625 70.515625 
z
" id="DejaVuSans-53"/>
       <path d="M 48.78125 52.59375 
L 48.78125 44.1875 
Q 44.96875 46.296875 41.140625 47.34375 
Q 37.3125 48.390625 33.40625 48.390625 
Q 24.65625 48.390625 19.8125 42.84375 
Q 14.984375 37.3125 14.984375 27.296875 
Q 14.984375 17.28125 19.8125 11.734375 
Q 24.65625 6.203125 33.40625 6.203125 
Q 37.3125 6.203125 41.140625 7.25 
Q 44.96875 8.296875 48.78125 10.40625 
L 48.78125 2.09375 
Q 45.015625 0.34375 40.984375 -0.53125 
Q 36.96875 -1.421875 32.421875 -1.421875 
Q 20.0625 -1.421875 12.78125 6.34375 
Q 5.515625 14.109375 5.515625 27.296875 
Q 5.515625 40.671875 12.859375 48.328125 
Q 20.21875 56 33.015625 56 
Q 37.15625 56 41.109375 55.140625 
Q 45.0625 54.296875 48.78125 52.59375 
z
" id="DejaVuSans-63"/>
       <path d="M 9.421875 54.6875 
L 18.40625 54.6875 
L 18.40625 0 
L 9.421875 0 
z
M 9.421875 75.984375 
L 18.40625 75.984375 
L 18.40625 64.59375 
L 9.421875 64.59375 
z
" id="DejaVuSans-69"/>
       <path d="M 32.171875 -5.078125 
Q 28.375 -14.84375 24.75 -17.8125 
Q 21.140625 -20.796875 15.09375 -20.796875 
L 7.90625 -20.796875 
L 7.90625 -13.28125 
L 13.1875 -13.28125 
Q 16.890625 -13.28125 18.9375 -11.515625 
Q 21 -9.765625 23.484375 -3.21875 
L 25.09375 0.875 
L 2.984375 54.6875 
L 12.5 54.6875 
L 29.59375 11.921875 
L 46.6875 54.6875 
L 56.203125 54.6875 
z
" id="DejaVuSans-79"/>
       <path d="M 24.3125 39.203125 
Q 19.875 35.25 17.796875 31.3125 
Q 15.71875 27.390625 15.71875 23.09375 
Q 15.71875 15.96875 20.890625 11.234375 
Q 26.078125 6.5 33.890625 6.5 
Q 38.53125 6.5 42.578125 8.03125 
Q 46.625 9.578125 50.203125 12.703125 
z
M 31.203125 44.671875 
L 56 19.28125 
Q 58.890625 23.640625 60.5 28.59375 
Q 62.109375 33.546875 62.40625 39.109375 
L 71.484375 39.109375 
Q 70.90625 32.671875 68.359375 26.359375 
Q 65.828125 20.0625 61.28125 13.921875 
L 74.90625 0 
L 62.59375 0 
L 55.609375 7.171875 
Q 50.53125 2.828125 44.96875 0.703125 
Q 39.40625 -1.421875 33.015625 -1.421875 
Q 21.234375 -1.421875 13.765625 5.296875 
Q 6.296875 12.015625 6.296875 22.515625 
Q 6.296875 28.765625 9.5625 34.25 
Q 12.84375 39.75 19.390625 44.578125 
Q 17.046875 47.65625 15.8125 50.703125 
Q 14.59375 53.765625 14.59375 56.6875 
Q 14.59375 64.59375 20.015625 69.40625 
Q 25.4375 74.21875 34.421875 74.21875 
Q 38.484375 74.21875 42.5 73.34375 
Q 46.53125 72.46875 50.6875 70.703125 
L 50.6875 61.8125 
Q 46.4375 64.109375 42.578125 65.296875 
Q 38.71875 66.5 35.40625 66.5 
Q 30.28125 66.5 27.078125 63.78125 
Q 23.875 61.078125 23.875 56.78125 
Q 23.875 54.296875 25.3125 51.78125 
Q 26.765625 49.265625 31.203125 44.671875 
z
" id="DejaVuSans-26"/>
      </defs>
      <g transform="translate(224.003816 23.726813)scale(0.1 -0.1)">
       <use xlink:href="#DejaVuSans-4a"/>
       <use x="29.492188" xlink:href="#DejaVuSans-6f"/>
       <use x="90.673828" xlink:href="#DejaVuSans-62"/>
       <use x="154.150391" xlink:href="#DejaVuSans-20"/>
       <use x="185.9375" xlink:href="#DejaVuSans-53"/>
       <use x="249.414062" xlink:href="#DejaVuSans-65"/>
       <use x="310.9375" xlink:href="#DejaVuSans-63"/>
       <use x="365.917969" xlink:href="#DejaVuSans-75"/>
       <use x="429.296875" xlink:href="#DejaVuSans-72"/>
       <use x="470.410156" xlink:href="#DejaVuSans-69"/>
       <use x="498.193359" xlink:href="#DejaVuSans-74"/>
       <use x="537.402344" xlink:href="#DejaVuSans-79"/>
       <use x="596.582031" xlink:href="#DejaVuSans-20"/>
       <use x="628.369141" xlink:href="#DejaVuSans-26"/>
      </g>
      <!-- Advancement -->
      <defs>
       <path d="M 34.1875 63.1875 
L 20.796875 26.90625 
L 47.609375 26.90625 
z
M 28.609375 72.90625 
L 39.796875 72.90625 
L 67.578125 0 
L 57.328125 0 
L 50.6875 18.703125 
L 17.828125 18.703125 
L 11.1875 0 
L 0.78125 0 
z
" id="DejaVuSans-41"/>
       <path d="M 45.40625 46.390625 
L 45.40625 75.984375 
L 54.390625 75.984375 
L 54.390625 0 
L 45.40625 0 
L 45.40625 8.203125 
Q 42.578125 3.328125 38.25 0.953125 
Q 33.9375 -1.421875 27.875 -1.421875 
Q 17.96875 -1.421875 11.734375 6.484375 
Q 5.515625 14.40625 5.515625 27.296875 
Q 5.515625 40.1875 11.734375 48.09375 
Q 17.96875 56 27.875 56 
Q 33.9375 56 38.25 53.625 
Q 42.578125 51.265625 45.40625 46.390625 
z
M 14.796875 27.296875 
Q 14.796875 17.390625 18.875 11.75 
Q 22.953125 6.109375 30.078125 6.109375 
Q 37.203125 6.109375 41.296875 11.75 
Q 45.40625 17.390625 45.40625 27.296875 
Q 45.40625 37.203125 41.296875 42.84375 
Q 37.203125 48.484375 30.078125 48.484375 
Q 22.953125 48.484375 18.875 42.84375 
Q 14.796875 37.203125 14.796875 27.296875 
z
" id="DejaVuSans-64"/>
       <path d="M 2.984375 54.6875 
L 12.5 54.6875 
L 29.59375 8.796875 
L 46.6875 54.6875 
L 56.203125 54.6875 
L 35.6875 0 
L 23.484375 0 
z
" id="DejaVuSans-76"/>
       <path d="M 34.28125 27.484375 
Q 23.390625 27.484375 19.1875 25 
Q 14.984375 22.515625 14.984375 16.5 
Q 14.984375 11.71875 18.140625 8.90625 
Q 21.296875 6.109375 26.703125 6.109375 
Q 34.1875 6.109375 38.703125 11.40625 
Q 43.21875 16.703125 43.21875 25.484375 
L 43.21875 27.484375 
z
M 52.203125 31.203125 
L 52.203125 0 
L 43.21875 0 
L 43.21875 8.296875 
Q 40.140625 3.328125 35.546875 0.953125 
Q 30.953125 -1.421875 24.3125 -1.421875 
Q 15.921875 -1.421875 10.953125 3.296875 
Q 6 8.015625 6 15.921875 
Q 6 25.140625 12.171875 29.828125 
Q 18.359375 34.515625 30.609375 34.515625 
L 43.21875 34.515625 
L 43.21875 35.40625 
Q 43.21875 41.609375 39.140625 45 
Q 35.0625 48.390625 27.6875 48.390625 
Q 23 48.390625 18.546875 47.265625 
Q 14.109375 46.140625 10.015625 43.890625 
L 10.015625 52.203125 
Q 14.9375 54.109375 19.578125 55.046875 
Q 24.21875 56 28.609375 56 
Q 40.484375 56 46.34375 49.84375 
Q 52.203125 43.703125 52.203125 31.203125 
z
" id="DejaVuSans-61"/>
       <path d="M 54.890625 33.015625 
L 54.890625 0 
L 45.90625 0 
L 45.90625 32.71875 
Q 45.90625 40.484375 42.875 44.328125 
Q 39.84375 48.1875 33.796875 48.1875 
Q 26.515625 48.1875 22.3125 43.546875 
Q 18.109375 38.921875 18.109375 30.90625 
L 18.109375 0 
L 9.078125 0 
L 9.078125 54.6875 
L 18.109375 54.6875 
L 18.109375 46.1875 
Q 21.34375 51.125 25.703125 53.5625 
Q 30.078125 56 35.796875 56 
Q 45.21875 56 50.046875 50.171875 
Q 54.890625 44.34375 54.890625 33.015625 
z
" id="DejaVuSans-6e"/>
       <path d="M 52 44.1875 
Q 55.375 50.25 60.0625 53.125 
Q 64.75 56 71.09375 56 
Q 79.640625 56 84.28125 50.015625 
Q 88.921875 44.046875 88.921875 33.015625 
L 88.921875 0 
L 79.890625 0 
L 79.890625 32.71875 
Q 79.890625 40.578125 77.09375 44.375 
Q 74.3125 48.1875 68.609375 48.1875 
Q 61.625 48.1875 57.5625 43.546875 
Q 53.515625 38.921875 53.515625 30.90625 
L 53.515625 0 
L 44.484375 0 
L 44.484375 32.71875 
Q 44.484375 40.625 41.703125 44.40625 
Q 38.921875 48.1875 33.109375 48.1875 
Q 26.21875 48.1875 22.15625 43.53125 
Q 18.109375 38.875 18.109375 30.90625 
L 18.109375 0 
L 9.078125 0 
L 9.078125 54.6875 
L 18.109375 54.6875 
L 18.109375 46.1875 
Q 21.1875 51.21875 25.484375 53.609375 
Q 29.78125 56 35.6875 56 
Q 41.65625 56 45.828125 52.96875 
Q 50 49.953125 52 44.1875 
z
" id="DejaVuSans-6d"/>
      </defs>
      <g transform="translate(224.635066 34.924626)scale(0.1 -0.1)">
       <use xlink:href="#DejaVuSans-41"/>
       <use x="68.392578" xlink:href="#DejaVuSans-64"/>
       <use x="131.869141" xlink:href="#DejaVuSans-76"/>
       <use x="191.048828" xlink:href="#DejaVuSans-61"/>
       <use x="252.328125" xlink:href="#DejaVuSans-6e"/>
       <use x="315.707031" xlink:href="#DejaVuSans-63"/>
       <use x="370.6875" xlink:href="#DejaVuSans-65"/>
       <use x="432.210938" xlink:href="#DejaVuSans-6d"/>
       <use x="529.623047" xlink:href="#DejaVuSans-65"/>
       <use x="591.146484" xlink:href="#DejaVuSans-6e"/>
       <use x="654.525391" xlink:href="#DejaVuSans-74"/>
      </g>
     </g>
    </g>
    <g id="xtick_3">
     <g id="line2d_3">
      <path clip-path="url(#pac470c7750)" d="M 221.4 143.28 
L 133.443672 79.375987 
" style="fill:none;stroke:#b0b0b0;stroke-linecap:square;stroke-width:0.8;"/>
     </g>
     <g id="text_3">
      <!-- Management -->
      <defs>
       <path d="M 9.8125 72.90625 
L 24.515625 72.90625 
L 43.109375 23.296875 
L 61.8125 72.90625 
L 76.515625 72.90625 
L 76.515625 0 
L 66.890625 0 
L 66.890625 64.015625 
L 48.09375 14.015625 
L 38.1875 14.015625 
L 19.390625 64.015625 
L 19.390625 0 
L 9.8125 0 
z
" id="DejaVuSans-4d"/>
       <path d="M 45.40625 27.984375 
Q 45.40625 37.75 41.375 43.109375 
Q 37.359375 48.484375 30.078125 48.484375 
Q 22.859375 48.484375 18.828125 43.109375 
Q 14.796875 37.75 14.796875 27.984375 
Q 14.796875 18.265625 18.828125 12.890625 
Q 22.859375 7.515625 30.078125 7.515625 
Q 37.359375 7.515625 41.375 12.890625 
Q 45.40625 18.265625 45.40625 27.984375 
z
M 54.390625 6.78125 
Q 54.390625 -7.171875 48.1875 -13.984375 
Q 42 -20.796875 29.203125 -20.796875 
Q 24.46875 -20.796875 20.265625 -20.09375 
Q 16.0625 -19.390625 12.109375 -17.921875 
L 12.109375 -9.1875 
Q 16.0625 -11.328125 19.921875 -12.34375 
Q 23.78125 -13.375 27.78125 -13.375 
Q 36.625 -13.375 41.015625 -8.765625 
Q 45.40625 -4.15625 45.40625 5.171875 
L 45.40625 9.625 
Q 42.625 4.78125 38.28125 2.390625 
Q 33.9375 0 27.875 0 
Q 17.828125 0 11.671875 7.65625 
Q 5.515625 15.328125 5.515625 27.984375 
Q 5.515625 40.671875 11.671875 48.328125 
Q 17.828125 56 27.875 56 
Q 33.9375 56 38.28125 53.609375 
Q 42.625 51.21875 45.40625 46.390625 
L 45.40625 54.6875 
L 54.390625 54.6875 
z
" id="DejaVuSans-67"/>
      </defs>
      <g transform="translate(89.179934 73.906369)scale(0.1 -0.1)">
       <use xlink:href="#DejaVuSans-4d"/>
       <use x="86.279297" xlink:href="#DejaVuSans-61"/>
       <use x="147.558594" xlink:href="#DejaVuSans-6e"/>
       <use x="210.9375" xlink:href="#DejaVuSans-61"/>
       <use x="272.216797" xlink:href="#DejaVuSans-67"/>
       <use x="335.693359" xlink:href="#DejaVuSans-65"/>
       <use x="397.216797" xlink:href="#DejaVuSans-6d"/>
       <use x="494.628906" xlink:href="#DejaVuSans-65"/>
       <use x="556.152344" xlink:href="#DejaVuSans-6e"/>
       <use x="619.53125" xlink:href="#DejaVuSans-74"/>
      </g>
     </g>
    </g>
    <g id="xtick_4">
     <g id="line2d_4">
      <path clip-path="url(#pac470c7750)" d="M 221.4 143.28 
L 133.443672 207.184013 
" style="fill:none;stroke:#b0b0b0;stroke-linecap:square;stroke-width:0.8;"/>
     </g>
     <g id="text_4">
      <!-- Salary &amp; -->
      <g transform="translate(100.922903 212.573475)scale(0.1 -0.1)">
       <use xlink:href="#DejaVuSans-53"/>
       <use x="63.476562" xlink:href="#DejaVuSans-61"/>
       <use x="124.755859" xlink:href="#DejaVuSans-6c"/>
       <use x="152.539062" xlink:href="#DejaVuSans-61"/>
       <use x="213.818359" xlink:href="#DejaVuSans-72"/>
       <use x="254.931641" xlink:href="#DejaVuSans-79"/>
       <use x="314.111328" xlink:href="#DejaVuSans-20"/>
       <use x="345.898438" xlink:href="#DejaVuSans-26"/>
      </g>
      <!-- Benefits -->
      <defs>
       <path d="M 19.671875 34.8125 
L 19.671875 8.109375 
L 35.5 8.109375 
Q 43.453125 8.109375 47.28125 11.40625 
Q 51.125 14.703125 51.125 21.484375 
Q 51.125 28.328125 47.28125 31.5625 
Q 43.453125 34.8125 35.5 34.8125 
z
M 19.671875 64.796875 
L 19.671875 42.828125 
L 34.28125 42.828125 
Q 41.5 42.828125 45.03125 45.53125 
Q 48.578125 48.25 48.578125 53.8125 
Q 48.578125 59.328125 45.03125 62.0625 
Q 41.5 64.796875 34.28125 64.796875 
z
M 9.8125 72.90625 
L 35.015625 72.90625 
Q 46.296875 72.90625 52.390625 68.21875 
Q 58.5 63.53125 58.5 54.890625 
Q 58.5 48.1875 55.375 44.234375 
Q 52.25 40.28125 46.1875 39.3125 
Q 53.46875 37.75 57.5 32.78125 
Q 61.53125 27.828125 61.53125 20.40625 
Q 61.53125 10.640625 54.890625 5.3125 
Q 48.25 0 35.984375 0 
L 9.8125 0 
z
" id="DejaVuSans-42"/>
       <path d="M 37.109375 75.984375 
L 37.109375 68.5 
L 28.515625 68.5 
Q 23.6875 68.5 21.796875 66.546875 
Q 19.921875 64.59375 19.921875 59.515625 
L 19.921875 54.6875 
L 34.71875 54.6875 
L 34.71875 47.703125 
L 19.921875 47.703125 
L 19.921875 0 
L 10.890625 0 
L 10.890625 47.703125 
L 2.296875 47.703125 
L 2.296875 54.6875 
L 10.890625 54.6875 
L 10.890625 58.5 
Q 10.890625 67.625 15.140625 71.796875 
Q 19.390625 75.984375 28.609375 75.984375 
z
" id="DejaVuSans-66"/>
       <path d="M 44.28125 53.078125 
L 44.28125 44.578125 
Q 40.484375 46.53125 36.375 47.5 
Q 32.28125 48.484375 27.875 48.484375 
Q 21.1875 48.484375 17.84375 46.4375 
Q 14.5 44.390625 14.5 40.28125 
Q 14.5 37.15625 16.890625 35.375 
Q 19.28125 33.59375 26.515625 31.984375 
L 29.59375 31.296875 
Q 39.15625 29.25 43.1875 25.515625 
Q 47.21875 21.78125 47.21875 15.09375 
Q 47.21875 7.46875 41.1875 3.015625 
Q 35.15625 -1.421875 24.609375 -1.421875 
Q 20.21875 -1.421875 15.453125 -0.5625 
Q 10.6875 0.296875 5.421875 2 
L 5.421875 11.28125 
Q 10.40625 8.6875 15.234375 7.390625 
Q 20.0625 6.109375 24.8125 6.109375 
Q 31.15625 6.109375 34.5625 8.28125 
Q 37.984375 10.453125 37.984375 14.40625 
Q 37.984375 18.0625 35.515625 20.015625 
Q 33.0625 21.96875 24.703125 23.78125 
L 21.578125 24.515625 
Q 13.234375 26.265625 9.515625 29.90625 
Q 5.8125 33.546875 5.8125 39.890625 
Q 5.8125 47.609375 11.28125 51.796875 
Q 16.75 56 26.8125 56 
Q 31.78125 56 36.171875 55.265625 
Q 40.578125 54.546875 44.28125 53.078125 
z
" id="DejaVuSans-73"/>
      </defs>
      <g transform="translate(101.651028 223.771287)scale(0.1 -0.1)">
       <use xlink:href="#DejaVuSans-42"/>
       <use x="68.603516" xlink:href="#DejaVuSans-65"/>
       <use x="130.126953" xlink:href="#DejaVuSans-6e"/>
       <use x="193.505859" xlink:href="#DejaVuSans-65"/>
       <use x="255.029297" xlink:href="#DejaVuSans-66"/>
       <use x="290.234375" xlink:href="#DejaVuSans-69"/>
       <use x="318.017578" xlink:href="#DejaVuSans-74"/>
       <use x="357.226562" xlink:href="#DejaVuSans-73"/>
      </g>
     </g>
    </g>
    <g id="xtick_5">
     <g id="line2d_5">
      <path clip-path="url(#pac470c7750)" d="M 221.4 143.28 
L 254.996328 246.678864 
" style="fill:none;stroke:#b0b0b0;stroke-linecap:square;stroke-width:0.8;"/>
     </g>
     <g id="text_5">
      <!-- Work / Life Balance -->
      <defs>
       <path d="M 3.328125 72.90625 
L 13.28125 72.90625 
L 28.609375 11.28125 
L 43.890625 72.90625 
L 54.984375 72.90625 
L 70.3125 11.28125 
L 85.59375 72.90625 
L 95.609375 72.90625 
L 77.296875 0 
L 64.890625 0 
L 49.515625 63.28125 
L 33.984375 0 
L 21.578125 0 
z
" id="DejaVuSans-57"/>
       <path d="M 9.078125 75.984375 
L 18.109375 75.984375 
L 18.109375 31.109375 
L 44.921875 54.6875 
L 56.390625 54.6875 
L 27.390625 29.109375 
L 57.625 0 
L 45.90625 0 
L 18.109375 26.703125 
L 18.109375 0 
L 9.078125 0 
z
" id="DejaVuSans-6b"/>
       <path d="M 25.390625 72.90625 
L 33.6875 72.90625 
L 8.296875 -9.28125 
L 0 -9.28125 
z
" id="DejaVuSans-2f"/>
       <path d="M 9.8125 72.90625 
L 19.671875 72.90625 
L 19.671875 8.296875 
L 55.171875 8.296875 
L 55.171875 0 
L 9.8125 0 
z
" id="DejaVuSans-4c"/>
      </defs>
      <g transform="translate(210.967097 262.753031)scale(0.1 -0.1)">
       <use xlink:href="#DejaVuSans-57"/>
       <use x="98.798828" xlink:href="#DejaVuSans-6f"/>
       <use x="159.980469" xlink:href="#DejaVuSans-72"/>
       <use x="201.09375" xlink:href="#DejaVuSans-6b"/>
       <use x="259.003906" xlink:href="#DejaVuSans-20"/>
       <use x="290.791016" xlink:href="#DejaVuSans-2f"/>
       <use x="324.482422" xlink:href="#DejaVuSans-20"/>
       <use x="356.269531" xlink:href="#DejaVuSans-4c"/>
       <use x="411.982422" xlink:href="#DejaVuSans-69"/>
       <use x="439.765625" xlink:href="#DejaVuSans-66"/>
       <use x="474.970703" xlink:href="#DejaVuSans-65"/>
       <use x="536.494141" xlink:href="#DejaVuSans-20"/>
       <use x="568.28125" xlink:href="#DejaVuSans-42"/>
       <use x="636.884766" xlink:href="#DejaVuSans-61"/>
       <use x="698.164062" xlink:href="#DejaVuSans-6c"/>
       <use x="725.947266" xlink:href="#DejaVuSans-61"/>
       <use x="787.226562" xlink:href="#DejaVuSans-6e"/>
       <use x="850.605469" xlink:href="#DejaVuSans-63"/>
       <use x="905.585938" xlink:href="#DejaVuSans-65"/>
      </g>
     </g>
    </g>
   </g>
   <g id="matplotlib.axis_2">
    <g id="ytick_1">
     <g id="line2d_6">
      <path clip-path="url(#pac470c7750)" d="M 243.144 143.28 
L 243.024884 141.007133 
L 242.668841 138.759168 
L 242.079773 136.560734 
L 241.264132 134.435918 
L 240.230856 132.408 
L 238.991266 130.499197 
L 237.558941 128.730424 
L 235.949576 127.121059 
L 234.180803 125.688734 
L 232.272 124.449144 
L 230.244082 123.415868 
L 228.119266 122.600227 
L 225.920832 122.011159 
L 223.672867 121.655116 
L 221.4 121.536 
L 219.127133 121.655116 
L 216.879168 122.011159 
L 214.680734 122.600227 
L 212.555918 123.415868 
L 210.528 124.449144 
L 208.619197 125.688734 
L 206.850424 127.121059 
L 205.241059 128.730424 
L 203.808734 130.499197 
L 202.569144 132.408 
L 201.535868 134.435918 
L 200.720227 136.560734 
L 200.131159 138.759168 
L 199.775116 141.007133 
L 199.656 143.28 
L 199.775116 145.552867 
L 200.131159 147.800832 
L 200.720227 149.999266 
L 201.535868 152.124082 
L 202.569144 154.152 
L 203.808734 156.060803 
L 205.241059 157.829576 
L 206.850424 159.438941 
L 208.619197 160.871266 
L 210.528 162.110856 
L 212.555918 163.144132 
L 214.680734 163.959773 
L 216.879168 164.548841 
L 219.127133 164.904884 
L 221.4 165.024 
L 223.672867 164.904884 
L 225.920832 164.548841 
L 228.119266 163.959773 
L 230.244082 163.144132 
L 232.272 162.110856 
L 234.180803 160.871266 
L 235.949576 159.438941 
L 237.558941 157.829576 
L 238.991266 156.060803 
L 240.230856 154.152 
L 241.264132 152.124082 
L 242.079773 149.999266 
L 242.668841 147.800832 
L 243.024884 145.552867 
L 243.144 143.28 
L 243.144 143.28 
" style="fill:none;stroke:#b0b0b0;stroke-linecap:square;stroke-width:0.8;"/>
     </g>
     <g id="text_6">
      <!-- 1 -->
      <defs>
       <path d="M 12.40625 8.296875 
L 28.515625 8.296875 
L 28.515625 63.921875 
L 10.984375 60.40625 
L 10.984375 69.390625 
L 28.421875 72.90625 
L 38.28125 72.90625 
L 38.28125 8.296875 
L 54.390625 8.296875 
L 54.390625 0 
L 12.40625 0 
z
" id="DejaVuSans-31"/>
      </defs>
      <g style="fill:#808080;" transform="translate(236.77533 126.24092)scale(0.08 -0.08)">
       <use xlink:href="#DejaVuSans-31"/>
      </g>
     </g>
    </g>
    <g id="ytick_2">
     <g id="line2d_7">
      <path clip-path="url(#pac470c7750)" d="M 264.888 143.28 
L 264.782065 140.24643 
L 264.464778 137.22764 
L 263.937683 134.238336 
L 263.203349 131.293083 
L 262.265353 128.406228 
L 261.128265 125.591837 
L 259.797625 122.863621 
L 258.279916 120.234871 
L 256.582531 117.718395 
L 254.713741 115.326452 
L 252.682649 113.070697 
L 250.499152 110.962118 
L 248.173886 109.010988 
L 245.718181 107.226814 
L 243.144 105.618287 
L 240.463884 104.193245 
L 237.690892 102.958629 
L 234.838531 101.920454 
L 231.920699 101.083779 
L 228.951612 100.45268 
L 225.945734 100.030232 
L 222.917709 99.818492 
L 219.882291 99.818492 
L 216.854266 100.030232 
L 213.848388 100.45268 
L 210.879301 101.083779 
L 207.961469 101.920454 
L 205.109108 102.958629 
L 202.336116 104.193245 
L 199.656 105.618287 
L 197.081819 107.226814 
L 194.626114 109.010988 
L 192.300848 110.962118 
L 190.117351 113.070697 
L 188.086259 115.326452 
L 186.217469 117.718395 
L 184.520084 120.234871 
L 183.002375 122.863621 
L 181.671735 125.591837 
L 180.534647 128.406228 
L 179.596651 131.293083 
L 178.862317 134.238336 
L 178.335222 137.22764 
L 178.017935 140.24643 
L 177.912 143.28 
L 178.017935 146.31357 
L 178.335222 149.33236 
L 178.862317 152.321664 
L 179.596651 155.266917 
L 180.534647 158.153772 
L 181.671735 160.968163 
L 183.002375 163.696379 
L 184.520084 166.325129 
L 186.217469 168.841605 
L 188.086259 171.233548 
L 190.117351 173.489303 
L 192.300848 175.597882 
L 194.626114 177.549012 
L 197.081819 179.333186 
L 199.656 180.941713 
L 202.336116 182.366755 
L 205.109108 183.601371 
L 207.961469 184.639546 
L 210.879301 185.476221 
L 213.848388 186.10732 
L 216.854266 186.529768 
L 219.882291 186.741508 
L 222.917709 186.741508 
L 225.945734 186.529768 
L 228.951612 186.10732 
L 231.920699 185.476221 
L 234.838531 184.639546 
L 237.690892 183.601371 
L 240.463884 182.366755 
L 243.144 180.941713 
L 245.718181 179.333186 
L 248.173886 177.549012 
L 250.499152 175.597882 
L 252.682649 173.489303 
L 254.713741 171.233548 
L 256.582531 168.841605 
L 258.279916 166.325129 
L 259.797625 163.696379 
L 261.128265 160.968163 
L 262.265353 158.153772 
L 263.203349 155.266917 
L 263.937683 152.321664 
L 264.464778 149.33236 
L 264.782065 146.31357 
L 264.888 143.28 
L 264.888 143.28 
" style="fill:none;stroke:#b0b0b0;stroke-linecap:square;stroke-width:0.8;"/>
     </g>
     <g id="text_7">
      <!-- 2 -->
      <defs>
       <path d="M 19.1875 8.296875 
L 53.609375 8.296875 
L 53.609375 0 
L 7.328125 0 
L 7.328125 8.296875 
Q 12.9375 14.109375 22.625 23.890625 
Q 32.328125 33.6875 34.8125 36.53125 
Q 39.546875 41.84375 41.421875 45.53125 
Q 43.3125 49.21875 43.3125 52.78125 
Q 43.3125 58.59375 39.234375 62.25 
Q 35.15625 65.921875 28.609375 65.921875 
Q 23.96875 65.921875 18.8125 64.3125 
Q 13.671875 62.703125 7.8125 59.421875 
L 7.8125 69.390625 
Q 13.765625 71.78125 18.9375 73 
Q 24.125 74.21875 28.421875 74.21875 
Q 39.75 74.21875 46.484375 68.546875 
Q 53.21875 62.890625 53.21875 53.421875 
Q 53.21875 48.921875 51.53125 44.890625 
Q 49.859375 40.875 45.40625 35.40625 
Q 44.1875 33.984375 37.640625 27.21875 
Q 31.109375 20.453125 19.1875 8.296875 
z
" id="DejaVuSans-32"/>
      </defs>
      <g style="fill:#808080;" transform="translate(252.15066 110.86559)scale(0.08 -0.08)">
       <use xlink:href="#DejaVuSans-32"/>
      </g>
     </g>
    </g>
    <g id="ytick_3">
     <g id="line2d_8">
      <path clip-path="url(#pac470c7750)" d="M 286.632 143.28 
L 286.473098 138.729646 
L 285.997167 134.20146 
L 285.206524 129.717505 
L 284.105023 125.299624 
L 282.698029 120.969342 
L 280.992397 116.747755 
L 278.996437 112.655431 
L 276.719873 108.712307 
L 274.173797 104.937592 
L 271.370611 101.349679 
L 268.323974 97.966045 
L 265.048728 94.803177 
L 261.560829 91.876483 
L 257.877271 89.200221 
L 254.016 86.787431 
L 249.995827 84.649867 
L 245.836337 82.797943 
L 241.557797 81.240681 
L 237.181049 79.985669 
L 232.727418 79.039021 
L 228.218601 78.405348 
L 223.676564 78.087738 
L 219.123436 78.087738 
L 214.581399 78.405348 
L 210.072582 79.039021 
L 205.618951 79.985669 
L 201.242203 81.240681 
L 196.963663 82.797943 
L 192.804173 84.649867 
L 188.784 86.787431 
L 184.922729 89.200221 
L 181.239171 91.876483 
L 177.751272 94.803177 
L 174.476026 97.966045 
L 171.429389 101.349679 
L 168.626203 104.937592 
L 166.080127 108.712307 
L 163.803563 112.655431 
L 161.807603 116.747755 
L 160.101971 120.969342 
L 158.694977 125.299624 
L 157.593476 129.717505 
L 156.802833 134.20146 
L 156.326902 138.729646 
L 156.168 143.28 
L 156.326902 147.830354 
L 156.802833 152.35854 
L 157.593476 156.842495 
L 158.694977 161.260376 
L 160.101971 165.590658 
L 161.807603 169.812245 
L 163.803563 173.904569 
L 166.080127 177.847693 
L 168.626203 181.622408 
L 171.429389 185.210321 
L 174.476026 188.593955 
L 177.751272 191.756823 
L 181.239171 194.683517 
L 184.922729 197.359779 
L 188.784 199.772569 
L 192.804173 201.910133 
L 196.963663 203.762057 
L 201.242203 205.319319 
L 205.618951 206.574331 
L 210.072582 207.520979 
L 214.581399 208.154652 
L 219.123436 208.472262 
L 223.676564 208.472262 
L 228.218601 208.154652 
L 232.727418 207.520979 
L 237.181049 206.574331 
L 241.557797 205.319319 
L 245.836337 203.762057 
L 249.995827 201.910133 
L 254.016 199.772569 
L 257.877271 197.359779 
L 261.560829 194.683517 
L 265.048728 191.756823 
L 268.323974 188.593955 
L 271.370611 185.210321 
L 274.173797 181.622408 
L 276.719873 177.847693 
L 278.996437 173.904569 
L 280.992397 169.812245 
L 282.698029 165.590658 
L 284.105023 161.260376 
L 285.206524 156.842495 
L 285.997167 152.35854 
L 286.473098 147.830354 
L 286.632 143.28 
L 286.632 143.28 
" style="fill:none;stroke:#b0b0b0;stroke-linecap:square;stroke-width:0.8;"/>
     </g>
     <g id="text_8">
      <!-- 3 -->
      <defs>
       <path d="M 40.578125 39.3125 
Q 47.65625 37.796875 51.625 33 
Q 55.609375 28.21875 55.609375 21.1875 
Q 55.609375 10.40625 48.1875 4.484375 
Q 40.765625 -1.421875 27.09375 -1.421875 
Q 22.515625 -1.421875 17.65625 -0.515625 
Q 12.796875 0.390625 7.625 2.203125 
L 7.625 11.71875 
Q 11.71875 9.328125 16.59375 8.109375 
Q 21.484375 6.890625 26.8125 6.890625 
Q 36.078125 6.890625 40.9375 10.546875 
Q 45.796875 14.203125 45.796875 21.1875 
Q 45.796875 27.640625 41.28125 31.265625 
Q 36.765625 34.90625 28.71875 34.90625 
L 20.21875 34.90625 
L 20.21875 43.015625 
L 29.109375 43.015625 
Q 36.375 43.015625 40.234375 45.921875 
Q 44.09375 48.828125 44.09375 54.296875 
Q 44.09375 59.90625 40.109375 62.90625 
Q 36.140625 65.921875 28.71875 65.921875 
Q 24.65625 65.921875 20.015625 65.03125 
Q 15.375 64.15625 9.8125 62.3125 
L 9.8125 71.09375 
Q 15.4375 72.65625 20.34375 73.4375 
Q 25.25 74.21875 29.59375 74.21875 
Q 40.828125 74.21875 47.359375 69.109375 
Q 53.90625 64.015625 53.90625 55.328125 
Q 53.90625 49.265625 50.4375 45.09375 
Q 46.96875 40.921875 40.578125 39.3125 
z
" id="DejaVuSans-33"/>
      </defs>
      <g style="fill:#808080;" transform="translate(267.52599 95.49026)scale(0.08 -0.08)">
       <use xlink:href="#DejaVuSans-33"/>
      </g>
     </g>
    </g>
    <g id="ytick_4">
     <g id="line2d_9">
      <path clip-path="url(#pac470c7750)" d="M 308.376 143.28 
L 308.164131 137.212861 
L 307.529556 131.17528 
L 306.475366 125.196673 
L 305.006697 119.306165 
L 303.130705 113.532456 
L 300.85653 107.903674 
L 298.19525 102.447241 
L 295.159831 97.189742 
L 291.765062 92.15679 
L 288.027481 87.372905 
L 283.965298 82.861394 
L 279.598304 78.644236 
L 274.947772 74.741977 
L 270.036362 71.173628 
L 264.888 67.956574 
L 259.527769 65.106489 
L 253.981783 62.637257 
L 248.277062 60.560908 
L 242.441399 58.887559 
L 236.503224 57.625361 
L 230.491468 56.780464 
L 224.435419 56.356983 
L 218.364581 56.356983 
L 212.308532 56.780464 
L 206.296776 57.625361 
L 200.358601 58.887559 
L 194.522938 60.560908 
L 188.818217 62.637257 
L 183.272231 65.106489 
L 177.912 67.956574 
L 172.763638 71.173628 
L 167.852228 74.741977 
L 163.201696 78.644236 
L 158.834702 82.861394 
L 154.772519 87.372905 
L 151.034938 92.15679 
L 147.640169 97.189742 
L 144.60475 102.447241 
L 141.94347 107.903674 
L 139.669295 113.532456 
L 137.793303 119.306165 
L 136.324634 125.196673 
L 135.270444 131.17528 
L 134.635869 137.212861 
L 134.424 143.28 
L 134.635869 149.347139 
L 135.270444 155.38472 
L 136.324634 161.363327 
L 137.793303 167.253835 
L 139.669295 173.027544 
L 141.94347 178.656326 
L 144.60475 184.112759 
L 147.640169 189.370258 
L 151.034938 194.40321 
L 154.772519 199.187095 
L 158.834702 203.698606 
L 163.201696 207.915764 
L 167.852228 211.818023 
L 172.763638 215.386372 
L 177.912 218.603426 
L 183.272231 221.453511 
L 188.818217 223.922743 
L 194.522938 225.999092 
L 200.358601 227.672441 
L 206.296776 228.934639 
L 212.308532 229.779536 
L 218.364581 230.203017 
L 224.435419 230.203017 
L 230.491468 229.779536 
L 236.503224 228.934639 
L 242.441399 227.672441 
L 248.277062 225.999092 
L 253.981783 223.922743 
L 259.527769 221.453511 
L 264.888 218.603426 
L 270.036362 215.386372 
L 274.947772 211.818023 
L 279.598304 207.915764 
L 283.965298 203.698606 
L 288.027481 199.187095 
L 291.765062 194.40321 
L 295.159831 189.370258 
L 298.19525 184.112759 
L 300.85653 178.656326 
L 303.130705 173.027544 
L 305.006697 167.253835 
L 306.475366 161.363327 
L 307.529556 155.38472 
L 308.164131 149.347139 
L 308.376 143.28 
L 308.376 143.28 
" style="fill:none;stroke:#b0b0b0;stroke-linecap:square;stroke-width:0.8;"/>
     </g>
     <g id="text_9">
      <!-- 4 -->
      <defs>
       <path d="M 37.796875 64.3125 
L 12.890625 25.390625 
L 37.796875 25.390625 
z
M 35.203125 72.90625 
L 47.609375 72.90625 
L 47.609375 25.390625 
L 58.015625 25.390625 
L 58.015625 17.1875 
L 47.609375 17.1875 
L 47.609375 0 
L 37.796875 0 
L 37.796875 17.1875 
L 4.890625 17.1875 
L 4.890625 26.703125 
z
" id="DejaVuSans-34"/>
      </defs>
      <g style="fill:#808080;" transform="translate(282.901319 80.114931)scale(0.08 -0.08)">
       <use xlink:href="#DejaVuSans-34"/>
      </g>
     </g>
    </g>
    <g id="ytick_5">
     <g id="line2d_10">
      <path clip-path="url(#pac470c7750)" d="M 330.12 143.28 
L 330.053771 139.485727 
L 329.855164 135.696076 
L 329.52442 131.915665 
L 329.061944 128.1491 
L 328.468299 124.40097 
L 327.744207 120.675841 
L 326.890551 116.978252 
L 325.908372 113.312707 
L 324.798864 109.683672 
L 323.563382 106.09557 
L 322.203429 102.552771 
L 320.720662 99.059592 
L 319.116889 95.620289 
L 317.394062 92.239052 
L 315.554282 88.92 
L 313.599789 85.667178 
L 311.532965 82.484548 
L 309.356328 79.375987 
L 307.072529 76.345284 
L 304.684352 73.396131 
L 302.194705 70.53212 
L 299.606623 67.756742 
L 296.923258 65.073377 
L 294.14788 62.485295 
L 291.283869 59.995648 
L 288.334716 57.607471 
L 285.304013 55.323672 
L 282.195452 53.147035 
L 279.012822 51.080211 
L 275.76 49.125718 
L 272.440948 47.285938 
L 269.059711 45.563111 
L 265.620408 43.959338 
L 262.127229 42.476571 
L 258.58443 41.116618 
L 254.996328 39.881136 
L 251.367293 38.771628 
L 247.701748 37.789449 
L 244.004159 36.935793 
L 240.27903 36.211701 
L 236.5309 35.618056 
L 232.764335 35.15558 
L 228.983924 34.824836 
L 225.194273 34.626229 
L 221.4 34.56 
L 217.605727 34.626229 
L 213.816076 34.824836 
L 210.035665 35.15558 
L 206.2691 35.618056 
L 202.52097 36.211701 
L 198.795841 36.935793 
L 195.098252 37.789449 
L 191.432707 38.771628 
L 187.803672 39.881136 
L 184.21557 41.116618 
L 180.672771 42.476571 
L 177.179592 43.959338 
L 173.740289 45.563111 
L 170.359052 47.285938 
L 167.04 49.125718 
L 163.787178 51.080211 
L 160.604548 53.147035 
L 157.495987 55.323672 
L 154.465284 57.607471 
L 151.516131 59.995648 
L 148.65212 62.485295 
L 145.876742 65.073377 
L 143.193377 67.756742 
L 140.605295 70.53212 
L 138.115648 73.396131 
L 135.727471 76.345284 
L 133.443672 79.375987 
L 131.267035 82.484548 
L 129.200211 85.667178 
L 127.245718 88.92 
L 125.405938 92.239052 
L 123.683111 95.620289 
L 122.079338 99.059592 
L 120.596571 102.552771 
L 119.236618 106.09557 
L 118.001136 109.683672 
L 116.891628 113.312707 
L 115.909449 116.978252 
L 115.055793 120.675841 
L 114.331701 124.40097 
L 113.738056 128.1491 
L 113.27558 131.915665 
L 112.944836 135.696076 
L 112.746229 139.485727 
L 112.68 143.28 
L 112.746229 147.074273 
L 112.944836 150.863924 
L 113.27558 154.644335 
L 113.738056 158.4109 
L 114.331701 162.15903 
L 115.055793 165.884159 
L 115.909449 169.581748 
L 116.891628 173.247293 
L 118.001136 176.876328 
L 119.236618 180.46443 
L 120.596571 184.007229 
L 122.079338 187.500408 
L 123.683111 190.939711 
L 125.405938 194.320948 
L 127.245718 197.64 
L 129.200211 200.892822 
L 131.267035 204.075452 
L 133.443672 207.184013 
L 135.727471 210.214716 
L 138.115648 213.163869 
L 140.605295 216.02788 
L 143.193377 218.803258 
L 145.876742 221.486623 
L 148.65212 224.074705 
L 151.516131 226.564352 
L 154.465284 228.952529 
L 157.495987 231.236328 
L 160.604548 233.412965 
L 163.787178 235.479789 
L 167.04 237.434282 
L 170.359052 239.274062 
L 173.740289 240.996889 
L 177.179592 242.600662 
L 180.672771 244.083429 
L 184.21557 245.443382 
L 187.803672 246.678864 
L 191.432707 247.788372 
L 195.098252 248.770551 
L 198.795841 249.624207 
L 202.52097 250.348299 
L 206.2691 250.941944 
L 210.035665 251.40442 
L 213.816076 251.735164 
L 217.605727 251.933771 
L 221.4 252 
L 225.194273 251.933771 
L 228.983924 251.735164 
L 232.764335 251.40442 
L 236.5309 250.941944 
L 240.27903 250.348299 
L 244.004159 249.624207 
L 247.701748 248.770551 
L 251.367293 247.788372 
L 254.996328 246.678864 
L 258.58443 245.443382 
L 262.127229 244.083429 
L 265.620408 242.600662 
L 269.059711 240.996889 
L 272.440948 239.274062 
L 275.76 237.434282 
L 279.012822 235.479789 
L 282.195452 233.412965 
L 285.304013 231.236328 
L 288.334716 228.952529 
L 291.283869 226.564352 
L 294.14788 224.074705 
L 296.923258 221.486623 
L 299.606623 218.803258 
L 302.194705 216.02788 
L 304.684352 213.163869 
L 307.072529 210.214716 
L 309.356328 207.184013 
L 311.532965 204.075452 
L 313.599789 200.892822 
L 315.554282 197.64 
L 317.394062 194.320948 
L 319.116889 190.939711 
L 320.720662 187.500408 
L 322.203429 184.007229 
L 323.563382 180.46443 
L 324.798864 176.876328 
L 325.908372 173.247293 
L 326.890551 169.581748 
L 327.744207 165.884159 
L 328.468299 162.15903 
L 329.061944 158.4109 
L 329.52442 154.644335 
L 329.855164 150.863924 
L 330.053771 147.074273 
L 330.12 143.28 
L 330.12 143.28 
" style="fill:none;stroke:#b0b0b0;stroke-linecap:square;stroke-width:0.8;"/>
     </g>
     <g id="text_10">
      <!-- 5 -->
      <defs>
       <path d="M 10.796875 72.90625 
L 49.515625 72.90625 
L 49.515625 64.59375 
L 19.828125 64.59375 
L 19.828125 46.734375 
Q 21.96875 47.46875 24.109375 47.828125 
Q 26.265625 48.1875 28.421875 48.1875 
Q 40.625 48.1875 47.75 41.5 
Q 54.890625 34.8125 54.890625 23.390625 
Q 54.890625 11.625 47.5625 5.09375 
Q 40.234375 -1.421875 26.90625 -1.421875 
Q 22.3125 -1.421875 17.546875 -0.640625 
Q 12.796875 0.140625 7.71875 1.703125 
L 7.71875 11.625 
Q 12.109375 9.234375 16.796875 8.0625 
Q 21.484375 6.890625 26.703125 6.890625 
Q 35.15625 6.890625 40.078125 11.328125 
Q 45.015625 15.765625 45.015625 23.390625 
Q 45.015625 31 40.078125 35.4375 
Q 35.15625 39.890625 26.703125 39.890625 
Q 22.75 39.890625 18.8125 39.015625 
Q 14.890625 38.140625 10.796875 36.28125 
z
" id="DejaVuSans-35"/>
      </defs>
      <g style="fill:#808080;" transform="translate(298.276649 64.739601)scale(0.08 -0.08)">
       <use xlink:href="#DejaVuSans-35"/>
      </g>
     </g>
    </g>
   </g>
   <g id="line2d_11">
    <path clip-path="url(#pac470c7750)" d="M 299.6784 143.28 
L 242.90165 77.104727 
L 161.589697 99.825271 
L 152.794064 193.12513 
L 246.933209 221.863137 
L 299.6784 143.28 
" style="fill:none;stroke:#1f77b4;stroke-dasharray:1,1.65;stroke-dashoffset:0;"/>
   </g>
  </g>
 </g>
 <defs>
  <clipPath id="pac470c7750">
   <path d="M 330.12 143.28 
C 330.12 129.00302 327.307746 114.864866 321.844183 101.674657 
C 316.380619 88.484448 308.371998 76.4987 298.276649 66.403351 
C 288.1813 56.308002 276.195552 48.299381 263.005343 42.835817 
C 249.815134 37.372254 235.67698 34.56 221.4 34.56 
C 207.12302 34.56 192.984866 37.372254 179.794657 42.835817 
C 166.604448 48.299381 154.6187 56.308002 144.523351 66.403351 
C 134.428002 76.4987 126.419381 88.484448 120.955817 101.674657 
C 115.492254 114.864866 112.68 129.00302 112.68 143.28 
C 112.68 157.55698 115.492254 171.695134 120.955817 184.885343 
C 126.419381 198.075552 134.428002 210.0613 144.523351 220.156649 
C 154.6187 230.251998 166.604448 238.260619 179.794657 243.724183 
C 192.984866 249.187746 207.12302 252 221.4 252 
C 235.67698 252 249.815134 249.187746 263.005343 243.724183 
C 276.195552 238.260619 288.1813 230.251998 298.276649 220.156649 
C 308.371998 210.0613 316.380619 198.075552 321.844183 184.885343 
C 327.307746 171.695134 330.12 157.55698 330.12 143.28 
M 221.4 143.28 
C 221.4 143.28 221.4 143.28 221.4 143.28 
C 221.4 143.28 221.4 143.28 221.4 143.28 
C 221.4 143.28 221.4 143.28 221.4 143.28 
C 221.4 143.28 221.4 143.28 221.4 143.28 
C 221.4 143.28 221.4 143.28 221.4 143.28 
C 221.4 143.28 221.4 143.28 221.4 143.28 
C 221.4 143.28 221.4 143.28 221.4 143.28 
C 221.4 143.28 221.4 143.28 221.4 143.28 
C 221.4 143.28 221.4 143.28 221.4 143.28 
C 221.4 143.28 221.4 143.28 221.4 143.28 
C 221.4 143.28 221.4 143.28 221.4 143.28 
C 221.4 143.28 221.4 143.28 221.4 143.28 
C 221.4 143.28 221.4 143.28 221.4 143.28 
C 221.4 143.28 221.4 143.28 221.4 143.28 
C 221.4 143.28 221.4 143.28 221.4 143.28 
C 221.4 143.28 221.4 143.28 221.4 143.28 
M 330.12 143.28 
z
"/>
  </clipPath>
 </defs>
</svg>
